<svg width="600" height="600" viewBox="0 0 600 600" fill="none" xmlns="http://www.w3.org/2000/svg">
<path d="M212.455 476.846C215.382 476.846 217.754 475.988 219.563 474.262C221.372 472.535 222.277 470.043 222.277 466.766V449.966C222.277 445.831 222.582 442.212 223.182 439.111C223.782 436.009 224.52 432.991 225.378 430.065L272.363 262.785L316.874 434.2C317.908 437.745 318.655 440.495 319.117 442.462L319.329 443.375C319.763 445.36 319.975 447.557 319.975 449.966V466.766C319.975 470.043 320.88 472.535 322.689 474.262C324.498 475.988 326.871 476.846 329.797 476.846H428.529C431.289 476.846 433.606 475.988 435.508 474.262C437.4 472.535 438.351 470.043 438.351 466.766V449.966C438.351 446.523 438.563 443.458 438.997 440.791C439.431 438.114 440.243 434.542 441.452 430.065L498.831 181.683C501.591 170.145 505.892 160.877 511.754 153.898C517.615 146.92 524.335 141.797 531.914 138.52L538.117 135.677C541.218 134.126 543.415 132.622 544.708 131.154C546 129.686 546.646 127.748 546.646 125.338C546.646 122.237 545.566 119.735 543.415 117.843C541.265 115.951 538.034 115 533.723 115H451.532C447.222 115 443.991 115.951 441.84 117.843C439.689 119.735 438.609 122.237 438.609 125.338C438.609 127.748 439.163 129.686 440.289 131.154C441.406 132.622 443.178 133.951 445.588 135.16L451.274 137.228C461.612 141.012 468.545 146.449 472.08 153.511C475.615 160.572 476.262 168.843 474.018 178.323L422.926 395.117L363.138 156.871C361.911 151.517 361.569 147.474 362.123 144.778L362.363 143.818C363.222 141.142 365.289 139.295 368.566 138.262L379.938 135.16C382.698 134.126 384.72 132.788 386.012 131.154C387.311 129.498 387.996 127.443 387.951 125.338C387.951 122.062 386.917 119.523 384.849 117.714C382.782 115.905 379.588 115 375.286 115H228.738C224.603 115 221.455 115.905 219.305 117.714C217.154 119.523 216.074 122.062 216.074 125.338C216.074 127.406 216.628 129.169 217.754 130.637C218.871 132.105 220.726 133.351 223.311 134.385L234.166 138.262C236.575 139.12 238.431 140.505 239.723 142.397C241.015 144.289 242.437 148 243.988 153.511L260.151 215.745L208.892 395.514L148.874 156.354C147.517 151.831 147.083 148.065 147.582 145.065L147.84 143.818C148.698 140.634 150.858 138.52 154.302 137.486L167.742 134.385C172.394 132.834 174.72 129.732 174.72 125.08C174.72 121.978 173.686 119.523 171.618 117.714C169.551 115.905 166.357 115 162.055 115H12.4062C8.27077 115 5.16923 115.905 3.10154 117.714C1.03385 119.523 0 121.978 0 125.08C0 127.148 0.516923 129.086 1.55077 130.895C2.58462 132.705 4.22769 134.126 6.46154 135.16L17.8338 138.778C21.1108 139.978 23.6031 141.622 25.3292 143.689C27.0554 145.757 28.5138 149.034 29.7231 153.511L102.092 434.2C103.126 438.169 103.855 441.132 104.289 443.117C104.723 445.102 104.935 447.382 104.935 449.966V466.766C104.935 470.043 105.886 472.535 107.778 474.262C109.671 475.988 112.089 476.846 115.015 476.846H212.455V476.846ZM533.723 483.308C544.754 483.308 554.612 480.631 563.317 475.295C571.962 470.013 579.086 462.577 583.994 453.714C589.071 444.668 591.618 434.883 591.618 424.378C591.618 413.698 589.08 403.96 583.994 395.172C579.019 386.496 571.9 379.242 563.317 374.108C554.612 368.846 544.754 366.225 533.723 366.225C523.043 366.225 513.351 368.855 504.646 374.108C496.063 379.242 488.944 386.496 483.969 395.172C478.892 403.96 476.345 413.698 476.345 424.378C476.345 434.892 478.883 444.668 483.969 453.714C489.046 462.76 495.942 469.96 504.646 475.295C513.351 480.64 523.043 483.308 533.723 483.308V483.308Z" fill="#00001A"/>
</svg>
