<svg width="30" height="30" viewBox="0 0 30 30" fill="none" xmlns="http://www.w3.org/2000/svg">
<path d="M28.3925 19.33C28.6036 19.3307 28.8127 19.2896 29.0079 19.2092C29.203 19.1288 29.3804 19.0107 29.5297 18.8615C29.6791 18.7124 29.7976 18.5352 29.8783 18.3402C29.9589 18.1451 30.0003 17.9361 30 17.725V12.6075C30.0007 12.3962 29.9595 12.1869 29.879 11.9916C29.7984 11.7962 29.68 11.6188 29.5306 11.4694C29.3812 11.32 29.2038 11.2016 29.0084 11.121C28.8131 11.0405 28.6038 10.9993 28.3925 11H1.60751C1.39622 10.9993 1.18689 11.0405 0.991563 11.121C0.796234 11.2016 0.618763 11.32 0.469361 11.4694C0.319959 11.6188 0.201577 11.7962 0.121027 11.9916C0.040476 12.1869 -0.000652445 12.3962 7.82546e-06 12.6075V17.7225C7.82546e-06 18.615 0.717507 19.33 1.60751 19.33H28.3925V19.33Z" fill="#FF7E1B"/>
</svg>
