<svg width="30" height="30" viewBox="0 0 30 30" fill="none" xmlns="http://www.w3.org/2000/svg">
<path d="M29.9975 17.556V12.4415C29.9982 12.2302 29.957 12.0209 29.8765 11.8256C29.7959 11.6303 29.6776 11.4528 29.5282 11.3034C29.3788 11.154 29.2013 11.0357 29.006 10.9551C28.8107 10.8746 28.6014 10.8335 28.3901 10.8341H19.1659V1.6074C19.1666 1.39571 19.1253 1.18598 19.0444 0.990341C18.9636 0.7947 18.8448 0.617019 18.6948 0.467564C18.5449 0.318108 18.3669 0.199841 18.171 0.119593C17.9751 0.0393457 17.7652 -0.0012908 17.5535 3.12509e-05H12.4415C12.2302 -0.000628964 12.0209 0.0404961 11.8256 0.12104C11.6303 0.201584 11.4528 0.319956 11.3034 0.469345C11.154 0.618734 11.0357 0.796191 10.9551 0.991503C10.8746 1.18682 10.8335 1.39613 10.8341 1.6074V10.8316H1.6074C1.39571 10.831 1.18598 10.8722 0.990341 10.9531C0.7947 11.0339 0.617019 11.1528 0.467564 11.3027C0.318108 11.4526 0.199841 11.6307 0.119593 11.8265C0.0393457 12.0224 -0.0012908 12.2323 3.12509e-05 12.444V17.5585C3.12509e-05 18.4485 0.717471 19.1659 1.6074 19.1659H10.8316V28.3926C10.8316 29.2826 11.5516 30 12.4415 30H17.556C17.7673 30.0007 17.9766 29.9595 18.1719 29.879C18.3672 29.7984 18.5447 29.6801 18.6941 29.5307C18.8435 29.3813 18.9619 29.2038 19.0424 29.0085C19.1229 28.8132 19.1641 28.6039 19.1634 28.3926V19.1684H28.3901C28.602 19.1691 28.812 19.1277 29.0078 19.0467C29.2036 18.9657 29.3814 18.8466 29.5309 18.6965C29.6803 18.5463 29.7986 18.3679 29.8787 18.1717C29.9588 17.9756 29.9991 17.7654 29.9975 17.5535V17.556Z" fill="#FF7E1B"/>
</svg>
