<svg width="30" height="30" viewBox="0 0 30 30" fill="none" xmlns="http://www.w3.org/2000/svg">
<path d="M2 4.92189V3.28126C2 2.50126 2.62625 1.87501 3.40625 1.87501H9.96875L10.52 0.780012C10.6346 0.545208 10.8131 0.347474 11.0349 0.209506C11.2568 0.0715383 11.5131 -0.00107122 11.7744 1.19439e-05H18.47C18.7318 -0.000154318 18.9885 0.0727707 19.2111 0.210576C19.4337 0.348382 19.6134 0.545595 19.73 0.780012L20.2812 1.87501H26.8437C27.6237 1.87501 28.25 2.50126 28.25 3.28126V4.92189C28.2495 5.10821 28.1753 5.28677 28.0435 5.41852C27.9117 5.55028 27.7332 5.62452 27.5469 5.62501H2.70312C2.5168 5.62452 2.33824 5.55028 2.20649 5.41852C2.07473 5.28677 2.00049 5.10821 2 4.92189V4.92189ZM26.375 8.20313V27.1875C26.375 27.9334 26.0787 28.6488 25.5512 29.1762C25.0238 29.7037 24.3084 30 23.5625 30H6.6875C5.94158 30 5.22621 29.7037 4.69876 29.1762C4.17132 28.6488 3.875 27.9334 3.875 27.1875V8.20313C3.875 7.81688 4.19187 7.50001 4.57812 7.50001H25.6719C26.0581 7.50001 26.375 7.81688 26.375 8.20313ZM10.4375 12.1875C10.4375 11.6719 10.0156 11.25 9.5 11.25C8.98437 11.25 8.5625 11.6719 8.5625 12.1875V25.3125C8.5625 25.8281 8.98437 26.25 9.5 26.25C10.0156 26.25 10.4375 25.8281 10.4375 25.3125V12.1875ZM16.0625 12.1875C16.0625 11.6719 15.6406 11.25 15.125 11.25C14.6094 11.25 14.1875 11.6719 14.1875 12.1875V25.3125C14.1875 25.8281 14.6094 26.25 15.125 26.25C15.6406 26.25 16.0625 25.8281 16.0625 25.3125V12.1875ZM21.6875 12.1875C21.6875 11.6719 21.2656 11.25 20.75 11.25C20.2344 11.25 19.8125 11.6719 19.8125 12.1875V25.3125C19.8125 25.8281 20.2344 26.25 20.75 26.25C21.2656 26.25 21.6875 25.8281 21.6875 25.3125V12.1875Z" fill="#C3CAD9"/>
</svg>
