<svg width="600" height="87" viewBox="0 0 600 87" fill="none" xmlns="http://www.w3.org/2000/svg">
<g clip-path="url(#clip0_285_79)">
<path d="M35.7261 86.9565C56.4261 86.9565 68.4174 83.6826 68.4174 66.9304C68.4174 52.1478 53.7217 48.7913 39.4609 46.5739L37.0261 46.2043L35.813 46.0261L34.2913 45.7957C22.5522 44.0348 20.4652 42.3696 20.4652 39.4C20.4652 37.3217 22.5957 33.613 32.8261 33.613C43.5 33.613 48.013 36.4261 48.013 41.7435V42.3261H66.6261V41.7478C66.6261 31.3609 60.7565 18.9739 32.8261 18.9739C6.94783 18.9739 1.51739 30.2087 1.51739 39.6348C1.51739 53.1 13.5304 57.4 32.9217 59.9609C33.8348 60.0826 34.8044 60.1956 35.787 60.313C43.0435 61.1696 49.5783 62.1391 49.5783 67.2043C49.5783 71.5956 42.5565 72.5174 35.2391 72.5174C23.0783 72.5174 18.787 69.9391 18.787 64.1696V63.587H0.00869565L0 64.8956V66.2739C0.0347826 69.7087 0.513044 74.5913 4.59565 78.7174C10.013 84.1826 20.487 86.9565 35.7261 86.9565ZM93.1609 86.9565V54.3913C93.1609 45.2435 95.5391 35.1609 111.317 35.1609C128.339 35.1609 127.743 47.2348 127.7 52.7348V86.9565H145.874V53.1826C145.874 43.3391 145.109 19.4174 116.604 19.4174C104.526 19.4174 98.3783 23.3783 94.0174 29.3304H93.1609V19.4217H74.8696V86.9565H93.1609ZM188.635 86.9565C210.783 86.9565 222.491 77.9565 224.361 63.4565H206.652C204.974 67.8913 199.565 70.9348 188.639 70.9348C176.809 70.9348 171.413 66.4565 170.161 57.4304H224.626C225.67 48.1696 224.5 33.8783 211.47 25.0826V25.1043C205.765 21.1261 198.183 18.7348 188.639 18.7348C165.857 18.7348 152.396 30.787 152.396 52.8435C152.396 75.3217 165.526 86.9565 188.639 86.9565H188.635ZM206.457 45.3304H170.857C172.97 38.487 178.526 34.7609 188.635 34.7609C201.652 34.7609 204.961 40.2696 206.457 45.3304ZM306.517 86.9565V19.3783H288.217V29.3043H287.452C282.874 23.3174 275.239 19.3783 262.77 19.3783C234.8 19.3783 231.357 42.3913 231.235 52.5739V53.1696C231.235 62.2652 234.417 86.9565 262.717 86.9565C275.387 86.9565 283.083 83.4 287.648 77.5261H288.217V86.9565H306.522H306.517ZM268.022 71.2043C250.648 71.2043 248.687 58.0217 248.687 53.1696C248.687 47.9087 250.539 35.1348 268.057 35.1348C283.844 35.1348 287.074 44.0217 287.074 53.1696C287.074 63.387 283.848 71.2043 268.022 71.2043V71.2043ZM386.2 86.9565L357.813 47.6304L386.457 19.4217H361.122L331.4 48.7956V0H313.196V86.7565H331.4V73.6522L344.53 60.713L363.478 86.9565H386.2ZM429.244 86.9565C451.391 86.9565 463.096 77.9565 464.97 63.4565H447.257C445.574 67.8913 440.17 70.9348 429.244 70.9348C417.413 70.9348 412.017 66.4565 410.765 57.4304H465.23C466.274 48.1696 465.104 33.8783 452.074 25.0826V25.1043C446.37 21.1261 438.783 18.7348 429.244 18.7348C406.461 18.7348 393 30.787 393 52.8435C393 75.3217 406.13 86.9565 429.244 86.9565V86.9565ZM447.061 45.3304H411.465C413.574 38.487 419.13 34.7609 429.244 34.7609C442.261 34.7609 445.57 40.2696 447.061 45.3304ZM490.261 86.9565V56.6522C490.261 47.5087 494.309 36.9043 507.87 36.9043C513.652 36.9043 518.274 37.9304 519.978 38.4087L522.891 21.1217C519.726 20.4261 515.822 19.4174 510.904 19.4174C499.317 19.4174 495.157 22.8696 491.4 29.3391H490.261V19.4174H471.957V86.9565H490.261V86.9565ZM565.135 86.9565C585.835 86.9565 597.826 83.6826 597.826 66.9304C597.826 52.1478 583.13 48.7913 568.87 46.5739L566.435 46.2043L565.222 46.0261L563.704 45.7957C551.961 44.0348 549.874 42.3696 549.874 39.4C549.874 37.3217 552.004 33.613 562.235 33.613C572.909 33.613 577.422 36.4261 577.422 41.7435V42.3261H596.039V41.7478C596.039 31.3609 590.17 18.9739 562.235 18.9739C536.357 18.9739 530.926 30.2087 530.926 39.6348C530.926 53.1 542.939 57.4 562.335 59.9609C563.248 60.0826 564.213 60.1956 565.196 60.313C572.452 61.1696 578.987 62.1391 578.987 67.2043C578.987 71.5956 571.965 72.5174 564.648 72.5174C552.491 72.5174 548.196 69.9391 548.196 64.1696V63.587H529.417L529.413 64.8956V66.2739C529.448 69.7087 529.922 74.5913 534.004 78.7174C539.422 84.1826 549.896 86.9565 565.135 86.9565V86.9565Z" fill="#1D2026"/>
</g>
<defs>
<clipPath id="clip0_285_79">
<rect width="600" height="86.9565" fill="white"/>
</clipPath>
</defs>
</svg>
